<svg xmlns="http://www.w3.org/2000/svg" width="48" height="48" viewBox="0 0 800 800">
  <g>
    <path d="M556.408,556.282a211.05,211.05,0,0,1-142.588,52.88c-120.869,0-209.632-88.763-209.632-210.577s85.93-206.8,209.632-206.8a216.239,216.239,0,0,1,143.532,51.936l26.441,22.663L700.885,149.293l-29.273-27.385A378.942,378.942,0,0,0,413.82,25.591c-217.186,0-374.883,156.752-374.883,372.05S200.411,774.413,413.82,774.413A379.044,379.044,0,0,0,673.5,676.207l28.329-26.441L582.848,532.674Z" fill="rgb(212, 212, 212)"/>
    <circle cx="408.155" cy="399.53" r="125.591" fill="rgb(212, 212, 212)"/>
  </g>
</svg>
