<svg version="1.1" id="Layer_1" xmlns="http://www.w3.org/2000/svg" xmlns:xlink="http://www.w3.org/1999/xlink" x="0px" y="0px"
	 width="48" height="48" viewBox="0 0 192 192" enable-background="new 0 0 192 192" xml:space="preserve">
<path fill="rgb(212, 212, 212)" opacity="1.000000" stroke="none" 
	d="
M142.000000,193.000000 
	C94.697174,193.000000 47.894344,193.000000 1.045758,193.000000 
	C1.045758,129.072220 1.045758,65.144402 1.045758,1.108289 
	C64.885956,1.108289 128.772156,1.108289 192.829178,1.108289 
	C192.829178,64.999619 192.829178,128.999786 192.829178,193.000000 
	C176.144684,193.000000 159.322342,193.000000 142.000000,193.000000 
M97.524284,119.470322 
	C98.520622,119.401726 99.520882,119.368698 100.512695,119.259125 
	C112.570786,117.927109 120.691650,109.176849 120.877716,97.330002 
	C121.058212,85.838654 113.748177,76.795807 102.816612,74.987595 
	C89.738052,72.824257 78.667946,78.823235 75.627937,90.357208 
	C71.161278,107.303947 82.215309,119.265938 97.524284,119.470322 
M47.342125,118.896187 
	C50.144871,118.549927 53.011333,118.468033 55.739059,117.810539 
	C66.198128,115.289490 72.369629,106.841171 72.098259,95.720566 
	C71.842064,85.221809 65.851257,77.707626 55.190308,75.990013 
	C48.401188,74.896194 41.392052,75.167984 34.279869,74.817505 
	C34.279869,89.910667 34.279869,104.141754 34.279869,118.895897 
	C38.469296,118.895897 42.428543,118.895897 47.342125,118.896187 
M132.967499,75.871948 
	C129.815918,75.594582 126.664330,75.317207 123.878876,75.072060 
	C123.878876,85.889519 123.173706,95.908791 124.089378,105.777664 
	C124.904900,114.567238 132.319992,119.447342 142.139297,119.454124 
	C151.388138,119.460518 158.406128,114.778503 159.230240,106.055679 
	C160.188065,95.917496 159.453568,85.619415 159.453568,75.433151 
	C156.320923,75.433151 153.388962,75.433151 150.031860,75.433151 
	C150.031860,77.470253 150.040070,79.259926 150.030396,81.049492 
	C149.992599,88.042206 150.371811,95.076218 149.694244,102.006721 
	C149.432846,104.680267 147.298325,108.350182 145.048065,109.321907 
	C142.744064,110.316833 138.227219,109.539574 136.541855,107.766899 
	C134.432831,105.548607 133.546097,101.567780 133.333618,98.270325 
	C132.874084,91.139221 133.180435,83.958755 132.967499,75.871948 
z"/>
<path fill="transparent" opacity="1.000000" stroke="none" 
	d="
M97.105865,119.451294 
	C82.215309,119.265938 71.161278,107.303947 75.627937,90.357208 
	C78.667946,78.823235 89.738052,72.824257 102.816612,74.987595 
	C113.748177,76.795807 121.058212,85.838654 120.877716,97.330002 
	C120.691650,109.176849 112.570786,117.927109 100.512695,119.259125 
	C99.520882,119.368698 98.520622,119.401726 97.105865,119.451294 
M95.895096,83.984482 
	C88.314148,85.942467 84.407295,91.179001 85.186028,98.338310 
	C85.883904,104.754211 90.688522,109.630936 96.744919,110.070656 
	C104.413910,110.627472 109.785995,105.814232 110.149757,98.060303 
	C110.561325,89.287201 105.790413,84.262878 95.895096,83.984482 
z"/>
<path fill="transparent" opacity="1.000000" stroke="none" 
	d="
M46.864960,118.896042 
	C42.428543,118.895897 38.469296,118.895897 34.279869,118.895897 
	C34.279869,104.141754 34.279869,89.910667 34.279869,74.817505 
	C41.392052,75.167984 48.401188,74.896194 55.190308,75.990013 
	C65.851257,77.707626 71.842064,85.221809 72.098259,95.720566 
	C72.369629,106.841171 66.198128,115.289490 55.739059,117.810539 
	C53.011333,118.468033 50.144871,118.549927 46.864960,118.896042 
M61.165798,93.489166 
	C58.449192,86.037994 52.235008,82.976822 44.115654,85.134071 
	C44.115654,93.053291 44.115654,100.986923 44.115654,108.884674 
	C55.259521,111.249878 62.228359,105.248238 61.165798,93.489166 
z"/>
<path fill="transparent" opacity="1.000000" stroke="none" 
	d="
M133.070496,76.335220 
	C133.180435,83.958755 132.874084,91.139221 133.333618,98.270325 
	C133.546097,101.567780 134.432831,105.548607 136.541855,107.766899 
	C138.227219,109.539574 142.744064,110.316833 145.048065,109.321907 
	C147.298325,108.350182 149.432846,104.680267 149.694244,102.006721 
	C150.371811,95.076218 149.992599,88.042206 150.030396,81.049492 
	C150.040070,79.259926 150.031860,77.470253 150.031860,75.433151 
	C153.388962,75.433151 156.320923,75.433151 159.453568,75.433151 
	C159.453568,85.619415 160.188065,95.917496 159.230240,106.055679 
	C158.406128,114.778503 151.388138,119.460518 142.139297,119.454124 
	C132.319992,119.447342 124.904900,114.567238 124.089378,105.777664 
	C123.173706,95.908791 123.878876,85.889519 123.878876,75.072060 
	C126.664330,75.317207 129.815918,75.594582 133.070496,76.335220 
z"/>
<path fill="rgb(212, 212, 212)" opacity="1.000000" stroke="none" 
	d="
M96.308929,83.952301 
	C105.790413,84.262878 110.561325,89.287201 110.149757,98.060303 
	C109.785995,105.814232 104.413910,110.627472 96.744919,110.070656 
	C90.688522,109.630936 85.883904,104.754211 85.186028,98.338310 
	C84.407295,91.179001 88.314148,85.942467 96.308929,83.952301 
z"/>
<path fill="rgb(212, 212, 212)" opacity="1.000000" stroke="none" 
	d="
M61.239487,93.869492 
	C62.228359,105.248238 55.259521,111.249878 44.115654,108.884674 
	C44.115654,100.986923 44.115654,93.053291 44.115654,85.134071 
	C52.235008,82.976822 58.449192,86.037994 61.239487,93.869492 
z"/>
</svg>