<svg xmlns="http://www.w3.org/2000/svg" width="48" height="48" version="1.0" viewBox="0 0 512 512">
  <path fill="rgb(212, 212, 212)" d="M246 34c-96.7 6.5-178.3 74.6-202.1 168.5-25 99.1 20.3 202.5 110.3 251.6C187 472 222.6 481 260.8 481c35.2 0 66.3-7.1 97.7-22.4 45.3-22.1 81.1-57.5 102.9-101.9 16.3-33.2 23-61.9 23-99.2 0-20.8-1.3-33.5-5.5-51.5-5.5-23.4-18-52.4-31.3-72.3C402.7 66.5 326.3 28.7 246 34zm-93 184.3c0 41.8.2 49 1.6 53.1 2 5.8 10 14.7 15.7 17.5 17.1 8.3 36.5 1.4 44.6-15.8l2.6-5.6.3-48.8.3-48.7h33.6l4.8 12.7c5.6 15 13.5 32.4 20.3 44.8 9.7 17.6 9.6 17.5 10.6 12.4 1-5.3 8.1-19.1 13.1-25.7 12.2-16.1 30.8-25.2 51.5-25.2 29.6 0 55.3 18.9 64.7 47.5 3.3 10 3.7 25.2.9 35.3-6.6 24.5-24.1 43.2-47.3 51-6.9 2.3-9.4 2.6-21.3 2.6-11.7-.1-14.7-.4-22.3-2.8-4.8-1.4-12-4.2-15.8-6.2-3.9-1.9-7.2-3.4-7.4-3.2-.2.2-3.5 15.4-7.4 33.8-3.9 18.4-7.3 34.5-7.6 35.7-.5 2.3-.7 2.3-18.1 2.3h-17.6l.6-2.8c.3-1.5 5.1-23.3 10.6-48.5 5.5-25.3 10-46.5 10-47.3 0-.8-2.2-4.8-5-8.9-2.7-4-8.1-12.9-12-19.7l-7-12.3v11c0 13.9-1.9 22.9-6.9 33-17.2 34.5-57.5 47.2-91.1 28.8-9.3-5.2-20.5-16.8-25.7-26.8-7.7-15-7.6-13.8-8-70.8l-.4-50.7H153v48.3z"/>
  <path fill="rgb(212, 212, 212)" d="M341.5 223.3c-6.6 2.2-9.9 4.3-14.2 9-6.8 7.3-8.8 12.5-13.8 35.1l-1.8 7.9 3.4 2.8c5.5 4.6 17.2 9.9 25.5 11.6 12.8 2.6 24.1-.6 32.7-9.1 8.5-8.5 12.9-21 10.8-30.8-3.4-15.5-16-26.3-31.8-27.4-4.2-.2-8.4.1-10.8.9z"/>
</svg>