<svg xmlns="http://www.w3.org/2000/svg" xml:space="preserve" width="80" height="30" viewBox="323 140 100 110">
  <path fill="#EFF4F5" d="M316.046 210.47c-.106 1.72-.21 3.006-.329 4.464h-8.295c0-7.805.065-15.543-.05-23.278-.026-1.766-.13-4.031-1.177-5.145-1.136-1.208-4.073-2.358-5.058-1.723-1.915 1.233-4.129 3.664-4.254 5.719-.485 7.953-.197 15.954-.197 24.284h-8.2c0-8.936-.375-17.867.107-26.75.468-8.652 11.725-16.43 22.353-8.96 4.187-1.017 7.795-2.555 11.434-2.635 6.684-.148 12.464 5.624 12.65 12.308.242 8.634.06 17.28.06 26.155h-8.16c0-7.548.02-14.98-.019-22.412-.007-1.483.314-3.504-.49-4.33-1.55-1.594-4.146-3.8-5.661-3.385-1.9.519-4.299 3.319-4.47 5.307-.566 6.607-.231 13.29-.244 20.38z"/>
  <path fill="#F1F5F7" d="M377.92 192.744c-3.57-6.94-8.087-9.356-14.137-7.902-5.896 1.417-8.96 5.834-8.994 13.2-.047 10.13-.012 20.26-.012 30.662h-7.717c0-12.422-.779-24.77.247-36.965.813-9.663 11.535-16.471 21.412-15.346 10.219 1.165 18.392 10.185 18.089 19.964-.317 10.231-8.716 18.733-19.227 19.412-1.615.104-3.243.014-5.146.014v-7.694c13.16-1.832 17.1-5.634 15.486-15.345z"/>
  <path fill="#F6F9F9" d="M484.848 186.603c-5.96 5.959-6.513 12.466-1.755 17.413 4.482 4.66 12.878 5.092 16.915-.047 2.234-2.845 3.366-7.199 3.502-10.927.432-11.782.16-23.59.16-35.702h7.29c0 14.69.756 29.346-.232 43.883-.84 12.35-19.479 18.666-30.317 10.993-7.846-5.555-10.767-15.3-7.135-23.804 3.788-8.868 12.52-13.362 22.545-11.471v6.299c-3.781 1.1-7.23 2.102-10.973 3.363z"/>
  <path fill="#F3F7F7" d="M398.949 209.047c-6.257-7.972-6.833-16.265-1.888-23.772 4.699-7.133 13.466-10.449 21.857-8.265 8.635 2.246 14.446 9.166 14.907 18.422.32 6.431.061 12.892.061 19.48H425.8c0-6.03.218-11.852-.052-17.65-.382-8.183-5.21-13.002-12.293-12.753-6.187.217-11.186 5.011-11.448 10.978-.268 6.097 4.13 11.303 10.336 12.055 1.775.215 3.599.033 5.562.033v7.916c-7.463 1.009-13.681-.74-18.955-6.444z"/>
  <path fill="#F2F6F7" d="M277.344 199.21v15.657h-8.326c0-6.15.043-12.127-.011-18.102-.065-7.2-4.791-12.164-11.599-12.287-6.223-.112-11.655 4.971-11.844 11.085-.208 6.678 4.727 11.673 11.913 12.062 1.145.063 2.29.138 3.758.227v7.267c-11.104 2.35-21.772-4.844-23.71-15.857-1.914-10.88 6.04-21.412 17.25-22.842 11.026-1.407 21.378 6.772 22.502 17.825.15 1.484.05 2.994.067 4.964z"/>
  <path fill="#F6F9FA" d="M452.86 177.608c4.202-.73 8.051-1.296 12.292-1.918v7.68c-.291.231-.525.577-.784.597-11.1.86-11.101.856-11.105 12.085-.002 6.137 0 12.274 0 18.738h-8.233c0-8.93-.267-17.707.107-26.458.203-4.74 3.077-8.315 7.722-10.724z"/>
</svg>