<svg xmlns="http://www.w3.org/2000/svg" width="80" height="30" xml:space="preserve" style="enable-background:new 0 0 652 652" viewBox="370 250 150 140">
  <path fill='white' d="M320.4 335.5c-1.1 0-1.7.6-2.2 1.1-5 5-9.5 6.7-16.3 6.7-11.8 0-20.7-9.5-20.7-21.9 0-12.3 9-21.9 20.7-21.9 6.2 0 10.6 2.2 15.7 6.2.6.6 1.7 1.1 2.2 1.1 1.7 0 3.4-1.7 3.4-3.4 0-.6-.6-1.7-1.1-2.8-4.5-3.9-10.1-7.8-20.2-7.8-15.7 0-27.5 12.3-27.5 28.6v.6c0 16.3 11.8 28.6 27.5 28.6 8.4 0 14.6-2.2 20.7-8.4.6-.6 1.1-1.7 1.1-2.2 0-2.8-1.7-4.5-3.3-4.5zM349.5 292.9c-1.7 0-3.4 1.7-3.4 3.4V345c0 1.7 1.7 3.4 3.4 3.4s3.4-1.7 3.4-3.4v-48.8c0-1.6-1.7-3.3-3.4-3.3zM402.2 318.1l19.1-19.1c1.1-1.1 1.1-1.7 1.1-2.2 0-1.7-1.7-3.4-3.4-3.4-1.1 0-1.7.6-2.2 1.1L385.9 326v-29.1c0-1.7-1.7-3.4-3.4-3.4s-3.4 1.1-3.4 3.4v48.8c0 1.7 1.7 3.4 3.4 3.4s3.4-1.7 3.4-3.4v-11.2l11.8-11.8 20.2 24.7c.6 1.1 1.7 1.1 2.8 1.1 1.7 0 3.4-1.7 3.4-3.4 0-1.1-.6-1.7-1.1-2.2l-20.8-24.8zM480.6 342.2h-28v-46c0-1.7-1.7-3.4-3.4-3.4s-3.4 1.7-3.4 3.4V345c0 1.7 1.7 3.4 3.4 3.4h31.4c1.7 0 3.4-1.7 3.4-3.4 0-1.6-1.7-2.8-3.4-2.8zM541.7 292.9c-1.7 0-3.4 1.7-3.4 3.4v29.1c0 11.2-5.6 17.4-16.3 17.4-10.1 0-16.3-6.7-16.3-17.9v-28.6c0-1.7-1.7-3.4-3.4-3.4s-3.4 1.7-3.4 3.4v29.1c0 14.6 9 24.1 23 24.1s23-9.5 23-24.7v-28.6c.2-1.6-1.5-3.3-3.2-3.3zM617.4 293.5c-1.7 0-2.8.6-3.4 1.7l-19.1 28-19.6-28.6c-.6-.6-1.1-1.7-2.8-1.7h-.5c-1.7 0-3.4 1.7-3.4 3.4V345c0 1.7 1.7 3.4 3.4 3.4s3.4-1.7 3.4-3.4v-38.7l16.3 24.1c.6 1.1 1.7 1.7 2.8 1.7 1.1 0 2.2-.6 2.8-1.7l16.3-24.1v39.2c0 1.7 1.7 3.4 3.4 3.4s3.4-1.7 3.4-3.4v-48.8c.9-2.1-.8-3.2-3-3.2z"/>
</svg>