<svg xmlns="http://www.w3.org/2000/svg" width="80" height="30" data-name="Шар 1" viewBox="265 250 250 200">
  <path d="M622.56 385.75v-9.47c2.05-.29 4-1.07 5.68-2.27 2.51-1.6 4.69-3.66 6.45-6.06v-20.84c-2.27.38-4.93.76-7.98 1.14-1.52.38-2.65.38-4.17.76v-9.47c4.02-.71 8.07-1.22 12.13-1.52v-2.27c.06-2.33-.33-4.65-1.14-6.83a17.1 17.1 0 0 0-2.99-4.17 13.117 13.117 0 0 0-8.35-2.27v-9.85c3.19-.05 6.37.35 9.45 1.19 2.88.62 5.51 2.07 7.58 4.17 2.26 1.91 3.97 4.4 4.93 7.2 1.31 3.65 1.95 7.5 1.89 11.38v48.05h-11.75v-7.18c-.97.91-1.86 1.91-2.65 2.99a32.24 32.24 0 0 1-3.8 2.99c-1.52 1-3.18 1.76-4.93 2.27h-.38m0-72.38v9.85h-1.89c-3.37.08-6.7.72-9.85 1.89-2.47.81-4.88 1.81-7.2 2.99h-.76V316.8c1.89-.76 4.55-1.14 7.98-1.89a50.1 50.1 0 0 1 10.21-1.1h1.52v-.51Zm0 26.53v9.47c-1.52.38-2.65.76-3.79 1.14-2.48.98-4.59 2.7-6.06 4.93-1.52 1.89-2.27 4.93-2.27 8.71-.1 3.35.83 6.66 2.65 9.47 1.89 2.27 4.17 2.99 7.58 2.99h1.89v9.47c-2 .35-4.03.48-6.06.38-5.3 0-9.47-1.89-13.26-6.44-3.79-4.55-4.88-9.31-4.88-15.79 0-4.93.76-9.47 2.65-12.5 1.97-3.16 4.72-5.77 7.98-7.58 2.99-1.89 7.2-2.99 11.75-3.79.57-.34 1.24-.48 1.89-.38m-188.78 45.84v-9.85c1.36.33 2.77.46 4.17.38 3.49-.08 6.94-.72 10.23-1.89a30.07 30.07 0 0 0 9.47-6.44h.76v12.12c-2.99 1.52-6.06 2.65-9.47 4.17a33.291 33.291 0 0 1-10.97 1.89c-1.4.05-2.8-.08-4.17-.38m0-35.24v-8.34h14.4c-.05-2.79-.3-5.58-.76-8.34-.4-2.21-1.04-4.37-1.89-6.45-1.14-1.89-2.27-3.41-4.17-4.17a11.594 11.594 0 0 0-6.44-1.52h-1.16v-9.09h1.89c7.98 0 14.02 2.65 17.81 8.34 3.79 5.68 5.68 13.27 5.68 23.12v6.44h-25.36Zm82.59 34.08h-11.75v-41.68c.06-2.91-.06-5.82-.38-8.71-.24-2.17-.62-4.33-1.14-6.45a6.693 6.693 0 0 0-2.99-3.41c-1.63-.86-3.47-1.25-5.3-1.14-2.74.07-5.4 1-7.59 2.65-2.65 1.7-5.07 3.73-7.2 6.06v52.67h-11.79v-69.7h11.75v7.58c2.67-2.83 5.73-5.25 9.09-7.2a20.9 20.9 0 0 1 9.48-2.65c2.45-.05 4.89.33 7.2 1.14 2.26.81 4.23 2.26 5.68 4.17 1.78 2.23 3.07 4.81 3.79 7.58.85 3.86 1.23 7.8 1.14 11.76v47.34Zm28.79 1.52c-3.74.02-7.45-.62-10.97-1.89a46.149 46.149 0 0 1-8.71-4.17V367.2h.76l2.65 2.65c1.32 1.09 2.71 2.08 4.17 2.99 1.89 1.14 3.41 1.89 4.93 2.65 1.92.77 3.97 1.16 6.04 1.14 3.41 0 6.44-.76 8.71-2.65 2.27-1.89 3.41-4.17 3.41-7.98 0-2.99-.76-5.3-1.89-6.44a12.984 12.984 0 0 0-6.44-3.41c-1.43-.4-2.82-.9-4.17-1.52-1.89-.76-3.41-1.14-5.3-1.89-4.17-1.52-7.58-3.79-9.47-7.2a18.42 18.42 0 0 1-3.41-11.37c0-6.45 1.89-11.38 6.06-15.16 4.17-3.79 9.47-5.68 16.29-5.68 3.35-.08 6.68.43 9.85 1.52 3.41 1.14 6.07 1.89 8.35 3.41v12.12h-.38c-2.24-2.15-4.8-3.94-7.59-5.3-2.79-1.57-5.9-2.48-9.09-2.65-2.98 0-5.89.93-8.34 2.65-2.27 1.89-2.99 4.17-2.99 7.58 0 2.66.38 4.94 1.89 6.45 1.14 1.52 3.41 2.65 6.06 3.79 1.89.76 3.41 1.14 4.55 1.52 1.14.38 2.65.76 4.93 1.52 3.8 1.23 7.21 3.45 9.86 6.44 2.27 2.99 3.41 6.82 3.41 11.75.06 2.89-.48 5.77-1.58 8.44a20.732 20.732 0 0 1-4.86 7.09c-3.8 4.55-9.48 6.44-16.68 6.44m43.54-1.48h-11.75v-69.7h11.75v69.7ZM571 293.3l7.58-9.85c1.52-1.89 3.79-1.89 5.68-.76l8.34 6.44c1.89 1.14 1.89 3.79.76 5.68l-7.58 9.85c-1.52 1.89-3.79 1.89-5.68.76l-8.34-6.44a4.564 4.564 0 0 1-1.37-2.71 4.55 4.55 0 0 1 .62-2.97Zm-137.18 20.1v9.09c-3.56.39-6.83 2.16-9.1 4.93-2.65 3.41-4.17 8.35-4.93 15.16h14.03v7.98H419.8c0 8.71 1.52 15.15 4.55 19.32 1.09 1.6 2.5 2.95 4.12 4 1.63 1.04 3.45 1.74 5.36 2.07v9.85c-7.58-.78-13.65-3.84-18.2-9.15-5.3-6.06-7.98-15.15-7.98-26.92s2.65-20.85 7.58-27.29c5.3-5.68 10.97-9.09 18.57-9.09m-220.53 73.57v-9.47c4.93 0 8.71-2.27 10.97-7.2 2.28-4.55 3.42-11.37 3.42-20.08s-1.14-15.92-3.42-20.47c-.94-2.1-2.49-3.87-4.44-5.08a11.607 11.607 0 0 0-6.52-1.74v-9.47c8.34 0 14.79 2.99 19.71 9.47 4.55 6.44 6.82 15.54 6.82 27.29s-2.27 20.84-6.82 26.92c-4.93 6.44-11.38 9.85-19.71 9.85v-.02Zm84.13-1.89h-11.76v-41.68c.06-2.91-.06-5.82-.38-8.71-.38-2.66-.76-4.94-1.14-6.45a9.022 9.022 0 0 0-2.99-3.41c-1.86-.49-3.76-.74-5.68-.76-2.57.05-5.07.84-7.2 2.27-2.65 1.52-4.93 3.79-7.58 6.06v52.27h-11.79v-68.95h11.75v7.58c2.99-2.99 6.06-5.68 9.09-7.2 2.83-1.79 6.12-2.71 9.47-2.65 2.45-.05 4.89.33 7.2 1.14a12.4 12.4 0 0 1 5.69 4.17c1.85 2.19 3.15 4.79 3.79 7.58.85 3.86 1.23 7.8 1.14 11.76v46.98h.38Zm28.79 1.52c-3.74-.01-7.44-.65-10.97-1.89a46.149 46.149 0 0 1-8.71-4.17v-12.88h.76l2.65 2.65c1.32 1.09 2.71 2.08 4.17 2.99 1.69 1.03 3.46 1.92 5.3 2.65 1.92.81 3.98 1.2 6.06 1.14 3.41 0 6.44-.76 8.71-2.65 2.27-1.52 3.41-4.17 3.41-7.98 0-2.99-.76-4.93-2.27-6.44a12.984 12.984 0 0 0-6.44-3.41c-1.43-.4-2.82-.9-4.17-1.52-1.82-.46-3.6-1.1-5.3-1.89a18.699 18.699 0 0 1-9.47-7.2 18.42 18.42 0 0 1-3.41-11.37c0-6.07 1.89-11.38 6.44-15.16 4.17-3.79 9.47-5.68 16.29-5.68 3.35-.08 6.68.43 9.85 1.52 2.97.6 5.8 1.76 8.34 3.41v12.12h-.76a29.63 29.63 0 0 0-7.58-5.3 20.151 20.151 0 0 0-9.09-2.27c-3.01-.17-5.98.77-8.34 2.65a9.65 9.65 0 0 0-2.25 3.29 9.594 9.594 0 0 0-.74 3.92c-.13 2.3.54 4.58 1.89 6.44 1.14 1.52 3.41 2.65 6.06 3.79 1.89.76 3.41 1.14 4.55 1.52 1.59.67 3.24 1.18 4.93 1.52 4.17 1.52 7.58 3.41 9.85 6.44 2.27 2.65 3.41 6.82 3.41 11.75 0 6.06-1.89 11.37-6.44 15.53-4.17 4.55-9.85 6.44-16.67 6.44m57.98 0c-8.71 0-15.15-2.99-20.08-9.09-4.94-6.44-7.21-15.16-7.21-26.92 0-10.97 2.27-20.09 7.21-26.53 2.31-3.13 5.34-5.66 8.84-7.38 3.5-1.71 7.35-2.56 11.24-2.47 3.1-.05 6.18.46 9.09 1.52 2.88 1.03 5.67 2.3 8.34 3.79v12.5h-.76a30.76 30.76 0 0 0-8.34-6.44 20.114 20.114 0 0 0-7.58-1.89c-4.93 0-8.71 2.27-11.75 6.82-2.99 4.94-4.55 11.38-4.55 20.09s1.52 14.78 4.17 19.7c1.06 2.2 2.73 4.05 4.82 5.32 2.08 1.28 4.49 1.93 6.93 1.88 2.81-.04 5.56-.83 7.98-2.27 3.01-1.67 5.71-3.85 7.98-6.44h.76v12.12c-1.3.55-2.57 1.19-3.79 1.89-1.52.76-2.65 1.14-4.17 1.89-1.89.38-2.99 1.14-4.55 1.14-1.45.54-3 .79-4.55.76m-219.02 0c-8.72 0-15.16-2.99-20.09-9.09-4.93-6.44-7.2-15.15-7.2-26.92 0-10.97 2.65-20.09 7.2-26.53 4.93-6.44 11.37-9.85 20.09-9.85 3.1-.05 6.18.46 9.09 1.52 2.88 1.03 5.67 2.3 8.34 3.79v12.5h-.76a30.76 30.76 0 0 0-8.34-6.44 20.114 20.114 0 0 0-7.58-1.89c-4.93 0-8.72 2.27-11.76 6.82-2.99 4.94-4.55 11.38-4.55 20.09s1.52 14.78 4.17 19.7c1.06 2.2 2.74 4.05 4.82 5.32 2.08 1.28 4.49 1.93 6.93 1.87 2.81-.04 5.56-.83 7.98-2.27 3.01-1.67 5.71-3.85 7.98-6.44h.76v12.12c-1.3.55-2.57 1.19-3.79 1.89-1.52.76-2.65 1.14-4.17 1.89-1.89.38-3.41 1.14-4.55 1.14-1.44.57-2.99.83-4.55.76m48.12-73.13v9.47a11.578 11.578 0 0 0-10.96 6.82c-2.65 4.56-3.79 11.38-3.79 20.47s1.14 15.53 3.41 20.08c2.27 4.93 6.06 7.2 10.97 7.2v9.47c-8.71 0-15.15-3.41-19.7-9.85-4.55-6.44-6.82-15.53-6.82-26.92s2.27-20.85 7.2-27.29c2.31-3.01 5.3-5.44 8.72-7.08 3.42-1.65 7.18-2.46 10.98-2.39" style="fill:#809eb0;fill-rule:evenodd"/>
  <path d="m545.26 273.59 7.58-9.86c1.14-1.89 3.79-1.89 5.68-.76l8.35 6.45c1.89 1.14 1.89 3.79.76 5.68l-7.59 9.85c-1.14 1.89-3.79 1.89-5.68.76l-8.34-6.44c-1.52-1.14-1.89-3.79-.76-5.68Zm-25.76-19.71 7.58-9.85c1.14-1.89 3.79-1.89 5.68-.76l8.34 6.44c1.89 1.14 1.89 3.79.76 5.68l-7.58 9.85c-1.14 1.9-3.79 1.9-5.68.77l-8.34-6.45c-1.52-1.14-1.89-3.79-.76-5.68Zm98.14 31.46 7.58-9.85c.3-.45.69-.84 1.16-1.13a3.81 3.81 0 0 1 3.13-.42c.52.16 1 .43 1.41.79l8.34 6.44c1.89 1.14 1.89 3.79.76 5.68l-7.58 9.85c-1.14 1.89-3.79 1.89-5.69.76l-8.34-6.44c-1.52-1.14-1.89-3.79-.76-5.68Zm-25.76-19.71 7.58-9.85c1.14-1.89 3.79-1.89 5.68-.76l8.34 6.44c1.89 1.14 1.89 3.79.76 5.69l-7.58 9.85c-1.14 1.89-3.79 1.89-5.68.76l-8.34-6.44c-1.52-1.14-1.89-3.79-.76-5.69Zm-51.16-39.02 7.58-9.85c1.52-1.89 3.79-1.89 5.68-.76l8.35 6.44c1.89 1.14 1.89 3.79.76 5.68l-7.59 9.85c-1.52 1.89-3.79 1.89-5.68.76l-8.34-6.44c-1.89-1.52-2.27-4.17-.76-5.68Zm-25.76-19.7 7.58-9.86c.3-.45.7-.83 1.16-1.11.46-.28.98-.47 1.51-.54.54-.07 1.08-.03 1.6.13.52.15 1 .42 1.41.77l8.34 6.45c.45.3.84.69 1.13 1.15a3.81 3.81 0 0 1 .42 3.13c-.16.52-.43 1-.78 1.41l-7.58 9.85c-1.14 1.89-3.79 1.89-5.68.76l-8.34-6.44c-.45-.3-.83-.7-1.11-1.16-.29-.46-.47-.98-.54-1.51-.07-.54-.03-1.08.13-1.6.15-.52.42-1 .77-1.41Zm123.91 51.15 7.58-9.85c1.52-1.89 3.79-1.89 5.68-.76l8.34 6.44c1.89 1.52 1.89 3.79.76 5.68l-7.58 9.86c-1.52 1.89-3.79 1.89-5.68.76l-8.34-6.45c-.45-.3-.83-.7-1.11-1.16-.29-.46-.47-.98-.54-1.51-.07-.54-.03-1.08.13-1.6.15-.52.42-1 .77-1.41Zm-25.77-19.7 7.58-9.85c1.14-1.89 3.79-1.89 5.68-.76l8.35 6.44c1.89 1.14 1.89 3.79.76 5.68l-7.59 9.85c-.3.45-.69.84-1.15 1.13a3.81 3.81 0 0 1-3.13.42c-.52-.16-1-.43-1.41-.78l-8.34-6.46c-.45-.3-.83-.7-1.11-1.16-.29-.46-.47-.98-.54-1.51-.07-.54-.03-1.08.13-1.6.15-.52.42-1 .77-1.41m-51.53-39.38 7.58-9.86c1.14-1.89 3.79-1.89 5.68-.76l8.34 6.44c1.89 1.14 1.89 3.79.76 5.69l-7.58 9.85c-.3.45-.69.84-1.15 1.13a3.81 3.81 0 0 1-3.13.42c-.52-.16-1-.43-1.41-.79l-8.34-6.44c-.45-.3-.84-.69-1.13-1.15a3.81 3.81 0 0 1-.42-3.13c.16-.52.43-1 .79-1.41Zm72.38 12.16 7.58-9.85c1.14-1.89 3.79-1.89 5.68-.76l8.34 6.44c1.89 1.14 1.89 3.79.76 5.68l-7.58 9.85c-1.14 1.89-3.79 1.89-5.68.76l-8.34-6.44c-1.89-1.52-2.27-4.17-.76-5.68Zm-51.53-39.45 7.58-9.85c1.52-1.89 3.79-1.89 5.68-.76l8.34 6.44c.45.3.84.69 1.13 1.15a3.81 3.81 0 0 1 .42 3.13c-.16.52-.43 1-.79 1.41l-7.58 9.85c-1.14 1.89-3.79 1.89-5.68.76l-8.34-6.44a4.564 4.564 0 0 1-1.37-2.71 4.55 4.55 0 0 1 .62-2.97Zm-25.78-19.7 7.59-9.85c1.14-1.89 3.79-1.89 5.68-.76l8.34 6.44c1.89 1.14 1.89 3.79.76 5.68l-7.58 9.85c-1.14 1.89-3.79 1.89-5.68.76l-8.35-6.44c-1.52-1.14-1.89-3.79-.76-5.68Z" style="fill-rule:evenodd;fill:transparent"/>
</svg>