<svg xmlns="http://www.w3.org/2000/svg" width="14" height="14" fill="none" class="inline-flex mr-1" viewBox="0 0 12.5 11">
  <path fill="#61DAFB" d="M12.303 5.501c0-.818-1.02-1.593-2.586-2.074.361-1.602.201-2.876-.506-3.283a1.096 1.096 0 0 0-.562-.141v.561c.115 0 .208.023.286.065.341.197.489.945.374 1.906a7.777 7.777 0 0 1-.128.74 12.11 12.11 0 0 0-1.593-.274c-.338-.466-.69-.889-1.043-1.259C7.363.98 8.13.562 8.652.562V0c-.69 0-1.593.493-2.506 1.35C5.234.499 4.331.01 3.641.01v.562c.52 0 1.29.415 2.107 1.173-.351.37-.702.79-1.036 1.256-.567.06-1.103.154-1.595.277a7.628 7.628 0 0 1-.13-.73c-.118-.962.027-1.71.366-1.908A.556.556 0 0 1 3.64.574V.013c-.21 0-.401.045-.567.14-.704.408-.862 1.68-.499 3.276C1.015 3.913 0 4.686 0 5.501c0 .819 1.02 1.594 2.585 2.075-.36 1.601-.2 2.875.507 3.283.163.096.354.141.564.141.69 0 1.593-.493 2.505-1.35.913.851 1.816 1.34 2.506 1.34.21 0 .4-.045.566-.141.705-.408.863-1.68.5-3.276 1.554-.48 2.57-1.256 2.57-2.072Zm-3.265-1.68c-.093.326-.208.66-.339.995a13.62 13.62 0 0 0-.69-1.193c.357.053.7.118 1.029.199ZM7.889 6.504c-.195.34-.396.662-.604.962a12.997 12.997 0 0 1-2.262.003 13.132 13.132 0 0 1-1.128-1.959 13.153 13.153 0 0 1 1.123-1.967A12.997 12.997 0 0 1 7.28 3.54a13.132 13.132 0 0 1 1.128 1.959 14.12 14.12 0 0 1-.519 1.004Zm.81-.327c.136.337.251.675.346 1.002-.328.08-.674.149-1.033.201A13.913 13.913 0 0 0 8.7 6.176ZM6.156 8.862a10.366 10.366 0 0 1-.697-.805c.226.01.457.017.69.017.236 0 .469-.005.697-.017a9.815 9.815 0 0 1-.69.805ZM4.291 7.38c-.356-.052-.7-.118-1.028-.198.092-.325.208-.66.338-.995.103.202.21.403.329.604.117.202.238.398.36.59ZM6.144 2.14c.233.242.466.511.697.806a12.7 12.7 0 0 0-1.387 0c.226-.295.46-.564.69-.806ZM4.288 3.623a13.907 13.907 0 0 0-.687 1.201c-.135-.337-.25-.675-.346-1.002.329-.078.675-.146 1.033-.199Zm-2.27 3.152C1.132 6.395.558 5.897.558 5.501c0-.395.574-.896 1.462-1.274a7.71 7.71 0 0 1 .694-.254c.143.493.331 1.007.565 1.533-.231.524-.417 1.035-.557 1.526a7.598 7.598 0 0 1-.702-.257Zm1.35 3.598c-.341-.196-.49-.944-.374-1.906.028-.237.073-.486.128-.74.492.12 1.028.214 1.593.274.338.466.69.89 1.043 1.26-.818.762-1.585 1.18-2.107 1.18a.598.598 0 0 1-.283-.068Zm5.948-1.918c.118.961-.027 1.71-.366 1.908a.557.557 0 0 1-.288.066c-.52 0-1.29-.416-2.107-1.174.351-.37.702-.79 1.036-1.256.567-.06 1.103-.154 1.595-.277.057.254.103.498.13.733Zm.966-1.68a7.698 7.698 0 0 1-.695.255 12.123 12.123 0 0 0-.564-1.534c.23-.523.416-1.035.556-1.526.249.079.484.164.705.257.888.38 1.462.879 1.462 1.274-.002.396-.577.897-1.464 1.274Z"/>
  <path fill="#61DAFB" d="M6.137 6.654c.635 0 1.15-.517 1.15-1.154 0-.637-.515-1.154-1.15-1.154-.635 0-1.15.517-1.15 1.154 0 .637.515 1.154 1.15 1.154Z"/>
</svg>