<svg xmlns="http://www.w3.org/2000/svg" xml:space="preserve" width="80" height="30" viewBox="0 100 400 100">
  <path fill="transparent" d="M377 301H1V1h400v300h-24M218.48 132.024c-.986-1.003-1.925-2.814-2.963-2.872-5.282-.295-10.59-.136-16.149-.136l-7.172 44.727h11.663l4.225-25.132.883.092 3.285 25.307c1.562 0 2.737-.166 3.849.029 5.215.913 8.081-1.102 9.875-6.22 2.324-6.63 5.556-12.941 8.397-19.39l.991.278-3.8 25.118h11.55l7.153-44.808c-4.526 0-8.497.174-12.445-.06-2.733-.162-4.2.687-5.245 3.306-2.34 5.87-5.015 11.605-7.577 17.385-.936 2.11-1.937 4.193-2.908 6.288l-.817-.326a3462.9 3462.9 0 0 0-2.796-23.586m69.047 23.766-4.488-26.774c-4.956 0-9.617-.268-14.215.157-1.464.135-3.314 1.838-4.04 3.295-4.585 9.21-8.905 18.554-13.309 27.855-2.089 4.41-4.168 8.826-6.462 13.687 2.046 0 3.4-.19 4.684.034 5.228.911 8.401-1.094 9.893-6.234.48-1.655 1.684-4.244 2.793-4.372 4.42-.511 9.062-.808 13.333.13 1.286.283 1.635 4.829 2.411 7.422.279.93.553 1.862.798 2.689h11.67l-3.068-17.89m-129.389 13.524-.389 4.454h31.094l1.078-7.201h-18.394c.442-3.289.961-5.89 1.1-8.513.179-3.353 1.652-4.631 5.037-4.328 3.089.277 6.221.059 9.6.059l1.078-7.798h-13.674l1.607-9.423H194.7l1.355-7.247h-31.39c-2.185 13.246-4.322 26.203-6.528 39.997m-42.507 4.476c6.643-2.55 7.216-8.6 8.074-14.343.9-6.016-.708-8.502-6.38-10.736-2.163-.852-4.71-1.198-6.425-2.587-1.52-1.23-3.148-3.781-2.844-5.393.3-1.581 2.818-3.506 4.642-3.867 3.182-.63 6.58-.176 10.236-.176l1.248-7.674c-5.602 0-10.573-.021-15.543.004-8.578.043-12.233 3.24-13.675 11.913-1.428 8.59-.224 10.477 8.822 13.837.779.29 1.541.624 2.326.896 3.206 1.11 5.047 2.956 4.272 6.72-.732 3.557-3.048 4.372-6.208 4.32-4.29-.07-8.58-.017-13.17-.017l-1.137 7.269c8.673 0 16.801 0 25.762-.166m-68.668.22c6.515-1.36 9.271-5.22 10.004-14.015.637-7.645-.27-9.058-7.62-11.815-1.558-.584-3.55-.72-4.596-1.792-1.524-1.562-3.184-3.73-3.318-5.738-.196-2.947 2.266-4.073 5.173-3.996 3.274.086 6.552.02 9.908.02l.997-7.615c-6.406 0-12.455-.562-18.321.23-3.06.414-7.314 2.546-8.42 5.052-4.848 10.993-4.636 18.12 6.884 20.584.16.034.312.115.467.177 3.105 1.244 6.583 2.187 5.895 6.728-.707 4.659-4.057 5.014-7.839 4.884-3.793-.13-7.594-.029-11.639-.029l-1.426 7.33c7.994 0 15.476 0 23.851-.005m312.07-30.236c2.377-6.584 3.317-7.107 12.764-7.106 6.78 0 6.972-.211 6.549-7.587-6.104 0-12.253-.327-18.349.104-4.79.339-9.045 2.477-11.366 7.063-4.45 8.794-6.038 18.276-5.748 28.004.158 5.31 4.077 9.402 9.084 9.627 7.44.333 14.906.086 22.592.086l1.285-7.28c-4.899 0-9.21.131-13.509-.034-4.75-.183-6.794-2.238-6.279-6.963.554-5.087 1.789-10.1 2.977-15.914m-284.124-5.386c-3.418-10.424-3.418-10.424-15.256-8.96 4.401 14.416 12.463 28.364 4.913 44.26h13.907c-1.305-18.005 11.963-29.712 18.898-44.697-2.102 0-3.626.246-5.04-.044-5.13-1.05-7.961 1.421-10 5.794-1.37 2.935-3.242 5.636-5.25 9.058-.851-1.993-1.417-3.318-2.172-5.41m220.138 31.734-.348 3.601h12.358l6.359-37.054c2.904 0 6.1.848 8.33-.255 1.962-.971 2.843-4.126 4.717-7.148h-36.539l-1.112 7.515h11.907c-1.923 11.254-3.74 21.883-5.672 33.34m-157.97-29.967-5.658 33.574h12.62c1.53-9.085 2.983-17.936 4.52-26.77 1.702-9.79 1.736-9.78 11.326-10.439.284-.02.55-.305 1.143-.654l1.224-6.584H126.88l-1.194 7.403c3.514 0 6.337-.199 9.101.117.876.1 1.596 1.572 2.288 3.353m191.025-1.796-5.976 35.262h12.55l7.442-44.436h-12.398a412.016 412.016 0 0 0-1.618 9.174z"/>
  <path fill="#fff" d="M218.558 132.457c.958 8.007 1.838 15.58 2.717 23.153l.817.326c.97-2.095 1.972-4.177 2.908-6.288 2.562-5.78 5.237-11.516 7.577-17.385 1.044-2.619 2.512-3.468 5.245-3.306 3.948.234 7.92.06 12.445.06l-7.153 44.808h-11.55l3.8-25.118-.99-.278c-2.842 6.449-6.074 12.76-8.398 19.39-1.794 5.118-4.66 7.133-9.875 6.22-1.112-.195-2.287-.029-3.849-.029l-3.285-25.307-.883-.092-4.225 25.132h-11.663l7.172-44.727c5.56 0 10.867-.159 16.149.136 1.038.058 1.977 1.87 3.04 3.305zM287.6 156.217l2.994 17.462h-11.67c-.245-.827-.52-1.759-.798-2.69-.776-2.592-1.125-7.138-2.41-7.42-4.272-.94-8.914-.642-13.334-.131-1.109.128-2.313 2.717-2.793 4.372-1.492 5.14-4.665 7.145-9.893 6.234-1.283-.224-2.638-.034-4.684-.034 2.294-4.86 4.373-9.276 6.462-13.687 4.404-9.301 8.724-18.644 13.31-27.855.725-1.457 2.575-3.16 4.04-3.295 4.597-.425 9.258-.157 14.214-.157 1.53 9.121 3.009 17.948 4.562 27.2m-17.314-11.385-5.403 11.662h10.928l-2.95-17.055a420.835 420.835 0 0 1-2.575 5.393zM158.172 168.894c2.171-13.375 4.308-26.332 6.493-39.578h31.39l-1.355 7.247h-18.426l-1.607 9.423h13.674l-1.078 7.798c-3.379 0-6.511.218-9.6-.06-3.385-.302-4.858.976-5.036 4.329-.14 2.622-.66 5.224-1.1 8.513h18.393l-1.078 7.2h-31.094c.14-1.587.264-3.02.424-4.872zM115.214 173.872c-8.545.083-16.673.083-25.346.083l1.138-7.269c4.588 0 8.88-.052 13.169.018 3.16.051 5.476-.764 6.208-4.32.775-3.765-1.066-5.61-4.272-6.721-.785-.272-1.547-.606-2.326-.896-9.046-3.36-10.25-5.247-8.822-13.837 1.442-8.673 5.097-11.87 13.675-11.913 4.97-.025 9.94-.004 15.543-.004l-1.248 7.674c-3.657 0-7.054-.454-10.236.176-1.824.36-4.343 2.286-4.642 3.867-.304 1.612 1.325 4.163 2.844 5.393 1.714 1.39 4.261 1.735 6.426 2.587 5.671 2.234 7.279 4.72 6.38 10.736-.86 5.742-1.432 11.793-8.491 14.426zM46.516 174.011c-7.929.002-15.41.002-23.405.002l1.426-7.329c4.045 0 7.846-.101 11.64.03 3.78.129 7.131-.226 7.838-4.885.688-4.541-2.79-5.484-5.895-6.728-.155-.062-.306-.143-.467-.177-11.52-2.464-11.732-9.591-6.883-20.584 1.105-2.506 5.359-4.638 8.419-5.051 5.866-.793 11.915-.23 18.321-.23l-.997 7.613c-3.356 0-6.634.067-9.908-.02-2.907-.076-5.369 1.05-5.173 3.997.134 2.007 1.794 4.176 3.318 5.738 1.046 1.071 3.038 1.208 4.596 1.792 7.35 2.757 8.257 4.17 7.62 11.815-.733 8.794-3.489 12.655-10.45 14.017zM358.907 144.158c-1.063 5.43-2.298 10.442-2.852 15.529-.515 4.725 1.53 6.78 6.28 6.963 4.298.165 8.609.035 13.508.035l-1.285 7.279c-7.686 0-15.152.247-22.592-.086-5.007-.225-8.926-4.316-9.084-9.627-.29-9.728 1.298-19.21 5.748-28.004 2.32-4.586 6.576-6.724 11.366-7.063 6.096-.431 12.245-.104 18.349-.104.423 7.376.232 7.588-6.55 7.587-9.446 0-10.386.522-12.888 7.491zM75.003 138.771c.66 1.71 1.226 3.034 2.076 5.027 2.01-3.422 3.881-6.123 5.25-9.058 2.04-4.373 4.871-6.845 10.001-5.794 1.414.29 2.938.044 5.04.044-6.935 14.985-20.203 26.692-18.898 44.697H64.565c7.55-15.896-.512-29.844-4.913-44.26 11.838-1.464 11.838-1.464 15.35 9.344zM295.104 169.707c1.875-11.043 3.69-21.672 5.614-32.926H288.81l1.112-7.515h36.54c-1.875 3.022-2.756 6.177-4.717 7.148-2.23 1.103-5.427.255-8.331.255l-6.359 37.054h-12.358c.114-1.182.231-2.392.406-4.016zM137.125 139.686c-.742-1.313-1.462-2.785-2.338-2.885-2.764-.316-5.587-.117-9.101-.117l1.194-7.403h35.37l-1.223 6.584c-.593.35-.859.635-1.143.654-9.59.659-9.624.65-11.327 10.438-1.536 8.835-2.988 17.686-4.519 26.771h-12.62c1.914-11.36 3.786-22.467 5.707-34.042zM328.141 137.928a717.018 717.018 0 0 1 1.577-8.744h12.398l-7.443 44.436h-12.55c2.003-11.815 3.99-23.538 6.018-35.692z"/>
  <path fill="transparent" d="M270.453 144.508c.723-1.502 1.28-2.68 2.408-5.07l2.95 17.055h-10.928c1.863-4.02 3.633-7.841 5.57-11.985z"/>
</svg>