<svg xmlns="http://www.w3.org/2000/svg" xml:space="preserve" width="80" height="30" transform="scale(2)" viewBox="1000 500 2000 3000">
  <path fill="transparent" d="M2224 4002H2V2h4000v4000H2224m63.206-1931.001v210.837h114.5v-244.73c15.279-2.054 254.127-1.417 261.612.759v243.739h113.762c2.174-28.1 1.165-551.43-1.042-558.946h-112.832v126.06c0 13.996.02 27.991-.005 41.987-.025 13.824.113 27.655-.094 41.482H2401.43V1722.81h-114.224V2071m-702.352-133.17h-212.381V1819h244.931c-.156-32.687.412-64.468-.358-96.209h-355.114v558.802h354.812v-96.09h-244.23v-153.114h228.427v-94.558h-16.087m283.658-202.155c-72.864 30.801-123.767 83.243-151.736 157.01-21.173 55.844-24.456 113.903-12.907 172.166 21.282 107.37 85.41 178.034 188.574 213.11 44.42 15.103 90.455 17.76 137.159 14.553 51.466-3.535 96.998-21.639 138.157-52.058 4.203-3.107 5.805-6.377 5.774-11.62-.225-37.987-.11-75.975-.153-113.963-.002-1.692-.498-3.383-1.011-6.648-4.574 4.727-7.887 8.431-11.488 11.83-56.453 53.27-123.027 74.514-199.345 59.597-56.494-11.043-97.751-44.183-122.74-96.033-16.323-33.871-19.447-70.236-15.15-107.373 6.809-58.861 36.517-102.574 87.616-131.834 43.15-24.708 89.632-28.078 137.48-19.293 44.295 8.133 81.305 30.292 113.49 61.147 3.225 3.09 6.336 6.299 10.326 10.277.5-2.584.82-3.47.82-4.356.03-38.987-.064-77.975.15-116.961.029-5.026-2.028-7.872-5.769-10.646-23.716-17.585-49.351-31.502-77.427-40.734-29.442-9.681-59.885-12.156-90.655-12.427-44.786-.394-88.185 6.587-131.165 24.256M930.579 1937v344.62h115.092v-456.18h149.8v-102.458c-23.33-2.059-407.72-1.148-414.576.818v102.43H930.58V1937m2209.18 325.92v-550.032l-245.25 51.904v103.142l133.784-34.932v449.338c37.624-.028 74.33.061 110.742-.061.426-2.127.656-2.759.663-3.393.045-4.663.047-9.327.062-15.966z"/>
  <path fill="#FEFEFE" d="M2287.206 2069.999V1722.81h114.224v209.377h261.677c.207-13.827.07-27.658.094-41.482.025-13.996.005-27.991.005-41.987v-126.06h112.832c2.207 7.517 3.216 530.845 1.042 558.946h-113.762v-243.74c-7.485-2.175-246.333-2.812-261.613-.759v244.731h-114.499V2070zM1585.826 1937.83h15.115v94.558h-228.427v153.114h244.23v96.09h-354.812V1722.79h355.114c.77 31.74.202 63.522.358 96.21h-244.931v118.83h213.353z"/>
  <path fill="#FDFDFD" d="M1869.208 1735.364c42.284-17.358 85.683-24.339 130.469-23.945 30.77.27 61.213 2.746 90.655 12.427 28.076 9.232 53.711 23.149 77.427 40.734 3.741 2.774 5.798 5.62 5.77 10.646-.215 38.986-.121 77.974-.15 116.961-.002.886-.322 1.772-.82 4.356-3.991-3.978-7.102-7.186-10.326-10.277-32.186-30.855-69.196-53.014-113.49-61.147-47.849-8.785-94.33-5.415-137.48 19.293-51.1 29.26-80.808 72.973-87.618 131.834-4.296 37.137-1.172 73.502 15.151 107.373 24.989 51.85 66.246 84.99 122.74 96.033 76.318 14.917 142.892-6.327 199.345-59.598 3.601-3.398 6.914-7.102 11.488-11.83.513 3.266 1.009 4.957 1.01 6.65.044 37.987-.07 75.975.154 113.962.03 5.243-1.571 8.513-5.774 11.62-41.159 30.42-86.691 48.523-138.157 52.058-46.704 3.208-92.74.55-137.159-14.553-103.164-35.076-167.292-105.74-188.574-213.11-11.549-58.263-8.266-116.322 12.907-172.166 27.97-73.767 78.872-126.209 152.432-157.321z"/>
  <path fill="#FCFCFC" d="M930.579 1936v-109.77H780.895V1723.8c6.856-1.966 391.246-2.877 414.577-.818v102.458h-149.8v456.18H930.578V1936z"/>
  <path fill="#FDFDFD" d="M3139.76 2263.907c-.015 5.652-.017 10.316-.062 14.98-.007.633-.237 1.265-.663 3.392-36.413.122-73.118.033-110.742.061v-449.338l-133.784 34.932v-103.142l245.25-51.904v551.02z"/>
</svg>