<svg xmlns="http://www.w3.org/2000/svg" width="22" height="22" version="1.0" viewBox="30 30 140 140">
  <g fill="#D4D4D4">
    <path d="M77 43v9H66.5C52.2 52 52 52.2 52 67v11H34v6h18v13H34v6h18v14H34v6h18v10.5c0 14.3.2 14.5 15 14.5h11v18h6v-18h13v18h6v-18h14v18h6v-18h10.5c14.3 0 14.5-.2 14.5-15v-11h18v-6h-18v-13h18v-6h-18V83h9c8.9 0 9 0 9-2.5s-.1-2.5-9-2.5h-9V67c0-9.7-.2-11.2-2-13-1.8-1.8-3.3-2-13-2h-11V34h-6v18h-13V34h-6v18H83V34h-6v9zm64.5 57v41.5h-83l-.3-40.5c-.1-22.3 0-41.1.3-41.8.3-1 9.2-1.2 41.7-1l41.3.3V100z"/>
    <path d="m78.2 100.2.3 22.3 21.1.3c17.1.2 21.3 0 22.3-1.2.8-.9 1.1-7.5.9-22.2l-.3-20.9-22.3-.3L78 78l.2 22.2z"/>
  </g>
</svg>