<svg xmlns="http://www.w3.org/2000/svg" xml:space="preserve" width="22" height="22" viewBox="0 0 4000 4000">
  <path fill="#D4D4D4" d="M1936 4002H2V2h4000v4000H1936m-659.81-2976.055c-.008 116.323-.017 232.647-.015 348.97 0 2.33.14 4.66-.096 8.15.67.181 1.34.362 3.865.74 169.37.008 338.74.014 508.11.041 3.982.001 7.964.244 12.448 1.166.418.495.94.824 2.03 2.812.021 3.999.062 7.998.062 11.997.003 522.955.003 1045.911.003 1568.867v13.185h400.625v-13.086c0-523.29-.001-1046.579.025-1569.868 0-4.308.372-8.617 1.475-13.271.564-.352.99-.828 3.124-1.778h523.335c2.142-16.406 1.375-354.372-.792-361.534h-11.799c-476.496 0-952.993 0-1429.49.007-3.663 0-7.326.102-12.127-.225-.195.657-.39 1.315-.783 3.827z"/>
  <path fill="transparent" d="M2203.817 1385.994c-.198 4.308-.57 8.617-.57 12.925-.026 523.29-.025 1046.579-.025 1569.868v13.086h-400.625v-13.185c0-522.956 0-1045.912-.003-1568.867 0-4-.04-7.998-.226-13.529-.899-1.711-1.634-1.892-2.368-2.072-3.982-.13-7.964-.373-11.946-.374-169.37-.027-338.74-.033-509.173-.548-1.402-1.022-1.879-1.318-2.491-1.394-.075-2.33-.215-4.66-.215-6.989-.002-116.323.007-232.647.514-350.019 1.02-1.352 1.327-1.802 1.421-2.397 3.664-.054 7.327-.156 10.99-.156 476.497-.007 952.994-.007 1429.49-.007h11.8c2.166 7.162 2.933 345.128.791 361.534-174.347 0-348.84 0-524.882.061-1.858.729-2.17 1.396-2.482 2.063z"/>
  <path fill="#C4C4C4" d="M1277.542 1022.308c.474.786.166 1.236-.754 1.661-.205-.536-.01-1.194.754-1.66zM1276.234 1382.484c.768-.504 1.245-.208 1.72.716-.534.227-1.204.046-1.72-.716z"/>
  <path fill="#222224" d="M1800.25 1384.616c.484-.216 1.22-.035 1.887.764-.695.456-1.217.127-1.886-.764zM2204.27 1385.82c-.141-.493.17-1.16 1.106-1.714.336.714-.09 1.19-1.106 1.715z"/>
</svg>